<svg width="109" height="19" viewBox="0 0 109 19" fill="none" xmlns="http://www.w3.org/2000/svg">
<g id="Review">
<g id="star 1">
<g id="Group">
<path id="Vector" d="M8.94135 0.231874L11.3693 5.71603L16.7967 6.59566C16.8655 6.60704 16.9302 6.63957 16.9833 6.68957C17.0365 6.73957 17.076 6.80506 17.0975 6.87868C17.1189 6.95229 17.1215 7.0311 17.1048 7.10622C17.0881 7.18135 17.0529 7.24981 17.0031 7.30389L13.0765 11.5718L14.0036 17.5993C14.0156 17.6755 14.0081 17.7539 13.9819 17.8256C13.9558 17.8973 13.9122 17.9594 13.8559 18.005C13.7996 18.0505 13.733 18.0776 13.6636 18.0832C13.5942 18.0888 13.5247 18.0727 13.4631 18.0367L8.6084 15.1914L3.75368 18.0375C3.69213 18.0736 3.62268 18.0899 3.55323 18.0844C3.48378 18.0788 3.41712 18.0518 3.36082 18.0063C3.30452 17.9608 3.26084 17.8986 3.23475 17.8269C3.20865 17.7552 3.20118 17.6768 3.2132 17.6006L4.14027 11.5718L0.212615 7.30389C0.162814 7.24981 0.127593 7.18135 0.110918 7.10622C0.0942421 7.0311 0.0967748 6.95229 0.118231 6.87868C0.139686 6.80506 0.179213 6.73957 0.232359 6.68957C0.285505 6.63957 0.35016 6.60704 0.419042 6.59566L5.84643 5.71603L8.27546 0.231874C8.30575 0.162379 8.35305 0.103769 8.41193 0.0627598C8.47082 0.0217505 8.53891 0 8.6084 0C8.6779 0 8.74599 0.0217505 8.80487 0.0627598C8.86376 0.103769 8.91106 0.162379 8.94135 0.231874Z" fill="#2563EB"/>
</g>
</g>
<g id="star 2">
<g id="Group_2">
<path id="Vector_2" d="M31.9124 0.231874L34.3403 5.71603L39.7677 6.59566C39.8366 6.60704 39.9013 6.63957 39.9544 6.68957C40.0076 6.73957 40.0471 6.80506 40.0685 6.87868C40.09 6.95229 40.0925 7.0311 40.0758 7.10622C40.0592 7.18135 40.024 7.24981 39.9742 7.30389L36.0476 11.5718L36.9747 17.5993C36.9866 17.6755 36.9791 17.7539 36.953 17.8256C36.9269 17.8973 36.8833 17.9594 36.827 18.005C36.7707 18.0505 36.7041 18.0776 36.6347 18.0832C36.5652 18.0888 36.4958 18.0727 36.4342 18.0367L31.5795 15.1914L26.7248 18.0375C26.6632 18.0736 26.5937 18.0899 26.5243 18.0844C26.4549 18.0788 26.3882 18.0518 26.3319 18.0063C26.2756 17.9608 26.2319 17.8986 26.2058 17.8269C26.1797 17.7552 26.1723 17.6768 26.1843 17.6006L27.1113 11.5718L23.1837 7.30389C23.1339 7.24981 23.0987 7.18135 23.082 7.10622C23.0653 7.0311 23.0678 6.95229 23.0893 6.87868C23.1108 6.80506 23.1503 6.73957 23.2034 6.68957C23.2566 6.63957 23.3212 6.60704 23.3901 6.59566L28.8175 5.71603L31.2465 0.231874C31.2768 0.162379 31.3241 0.103769 31.383 0.0627598C31.4419 0.0217505 31.51 0 31.5795 0C31.649 0 31.7171 0.0217505 31.7759 0.0627598C31.8348 0.103769 31.8821 0.162379 31.9124 0.231874Z" fill="#2563EB"/>
</g>
</g>
<g id="star 3">
<g id="Group_3">
<path id="Vector_3" d="M54.8835 0.231874L57.3114 5.71603L62.7388 6.59566C62.8077 6.60704 62.8723 6.63957 62.9255 6.68957C62.9786 6.73957 63.0182 6.80506 63.0396 6.87868C63.0611 6.95229 63.0636 7.0311 63.0469 7.10622C63.0302 7.18135 62.995 7.24981 62.9452 7.30389L59.0187 11.5718L59.9457 17.5993C59.9577 17.6755 59.9502 17.7539 59.9241 17.8256C59.898 17.8973 59.8543 17.9594 59.7981 18.005C59.7418 18.0505 59.6752 18.0776 59.6057 18.0832C59.5363 18.0888 59.4669 18.0727 59.4053 18.0367L54.5505 15.1914L49.6958 18.0375C49.6343 18.0736 49.5648 18.0899 49.4954 18.0844C49.4259 18.0788 49.3593 18.0518 49.303 18.0063C49.2467 17.9608 49.203 17.8986 49.1769 17.8269C49.1508 17.7552 49.1433 17.6768 49.1553 17.6006L50.0824 11.5718L46.1548 7.30389C46.105 7.24981 46.0697 7.18135 46.0531 7.10622C46.0364 7.0311 46.0389 6.95229 46.0604 6.87868C46.0818 6.80506 46.1214 6.73957 46.1745 6.68957C46.2276 6.63957 46.2923 6.60704 46.3612 6.59566L51.7886 5.71603L54.2176 0.231874C54.2479 0.162379 54.2952 0.103769 54.3541 0.0627598C54.413 0.0217505 54.481 0 54.5505 0C54.62 0 54.6881 0.0217505 54.747 0.0627598C54.8059 0.103769 54.8532 0.162379 54.8835 0.231874Z" fill="#2563EB"/>
</g>
</g>
<g id="star 4">
<g id="Group_4">
<path id="Vector_4" d="M77.8546 0.231874L80.2825 5.71603L85.7099 6.59566C85.7788 6.60704 85.8435 6.63957 85.8966 6.68957C85.9498 6.73957 85.9893 6.80506 86.0107 6.87868C86.0322 6.95229 86.0347 7.0311 86.018 7.10622C86.0014 7.18135 85.9662 7.24981 85.9164 7.30389L81.9898 11.5718L82.9169 17.5993C82.9288 17.6755 82.9213 17.7539 82.8952 17.8256C82.8691 17.8973 82.8255 17.9594 82.7692 18.005C82.7129 18.0505 82.6463 18.0776 82.5769 18.0832C82.5074 18.0888 82.438 18.0727 82.3764 18.0367L77.5217 15.1914L72.667 18.0375C72.6054 18.0736 72.5359 18.0899 72.4665 18.0844C72.3971 18.0788 72.3304 18.0518 72.2741 18.0063C72.2178 17.9608 72.1741 17.8986 72.148 17.8269C72.1219 17.7552 72.1145 17.6768 72.1265 17.6006L73.0535 11.5718L69.1259 7.30389C69.0761 7.24981 69.0409 7.18135 69.0242 7.10622C69.0075 7.0311 69.01 6.95229 69.0315 6.87868C69.053 6.80506 69.0925 6.73957 69.1456 6.68957C69.1988 6.63957 69.2634 6.60704 69.3323 6.59566L74.7597 5.71603L77.1887 0.231874C77.219 0.162379 77.2663 0.103769 77.3252 0.0627598C77.3841 0.0217505 77.4522 0 77.5217 0C77.5912 0 77.6593 0.0217505 77.7181 0.0627598C77.777 0.103769 77.8243 0.162379 77.8546 0.231874Z" fill="#2563EB"/>
</g>
</g>
<g id="star 5">
<g id="Group_5">
<path id="Vector_5" d="M100.826 0.231874L103.254 5.71603L108.681 6.59566C108.75 6.60704 108.815 6.63957 108.868 6.68957C108.921 6.73957 108.96 6.80506 108.982 6.87868C109.003 6.95229 109.006 7.0311 108.989 7.10622C108.972 7.18135 108.937 7.24981 108.887 7.30389L104.961 11.5718L105.888 17.5993C105.9 17.6755 105.892 17.7539 105.866 17.8256C105.84 17.8973 105.797 17.9594 105.74 18.005C105.684 18.0505 105.617 18.0776 105.548 18.0832C105.479 18.0888 105.409 18.0727 105.347 18.0367L100.493 15.1914L95.638 18.0375C95.5765 18.0736 95.507 18.0899 95.4376 18.0844C95.3681 18.0788 95.3015 18.0518 95.2452 18.0063C95.1889 17.9608 95.1452 17.8986 95.1191 17.8269C95.093 17.7552 95.0855 17.6768 95.0975 17.6006L96.0246 11.5718L92.097 7.30389C92.0472 7.24981 92.0119 7.18135 91.9953 7.10622C91.9786 7.0311 91.9811 6.95229 92.0026 6.87868C92.024 6.80506 92.0636 6.73957 92.1167 6.68957C92.1698 6.63957 92.2345 6.60704 92.3034 6.59566L97.7308 5.71603L100.16 0.231874C100.19 0.162379 100.237 0.103769 100.296 0.0627598C100.355 0.0217505 100.423 0 100.493 0C100.562 0 100.63 0.0217505 100.689 0.0627598C100.748 0.103769 100.795 0.162379 100.826 0.231874Z" fill="#2563EB"/>
</g>
</g>
</g>
</svg>
